HIERARCHY
ROOT Hips
{
  OFFSET 13.6774 106.653 -34.4427
  CHANNELS 6 Xposition Yposition Zposition Zrotation Xrotation Yrotation
  JOINT ToSpine
  {
    OFFSET -2.69724 7.43032 -0.144315
    CHANNELS 3 Zrotation Xrotation Yrotation
    JOINT Spine
    {
      OFFSET -0.0310711 10.7595 1.96963
      CHANNELS 3 Zrotation Xrotation Yrotation
      JOINT Spine1
      {
        OFFSET 19.9056 3.91189 0.764692
        CHANNELS 3 Zrotation Xrotation Yrotation
        JOINT Neck
        {
          OFFSET 25.9749 7.03908 -0.130764
          CHANNELS 3 Zrotation Xrotation Yrotation
          JOINT Head
          {
            OFFSET 9.52751 0.295786 -0.907742
            CHANNELS 3 Zrotation Xrotation Yrotation
            End Site
            {
              OFFSET 16.4037 0.713936 2.7358
            }
          }
        }
        JOINT LeftShoulder
        {
          OFFSET 17.7449 4.33886 11.7777
          CHANNELS 3 Zrotation Xrotation Yrotation
          JOINT LeftArm
          {
            OFFSET 0.911315 1.27913 9.80584
            CHANNELS 3 Zrotation Xrotation Yrotation
            JOINT LeftForeArm
            {
              OFFSET 28.6126 1.18197 -3.53199
              CHANNELS 3 Zrotation Xrotation Yrotation
              JOINT LeftHand
              {
                OFFSET 27.5088 0.0218783 0.327423
                CHANNELS 3 Zrotation Xrotation Yrotation
                End Site
                {
                  OFFSET 18.6038 -0.000155887 0.382096
                }
              }
            }
          }
        }
        JOINT RightShoulder
        {
          OFFSET 17.1009 2.89543 -12.2328
          CHANNELS 3 Zrotation Xrotation Yrotation
          JOINT RightArm
          {
            OFFSET 1.4228 0.178766 -10.211
            CHANNELS 3 Zrotation Xrotation Yrotation
            JOINT RightForeArm
            {
              OFFSET 28.733 1.87905 2.64907
              CHANNELS 3 Zrotation Xrotation Yrotation
              JOINT RightHand
              {
                OFFSET 27.4588 0.290562 -0.101845
                CHANNELS 3 Zrotation Xrotation Yrotation
                End Site
                {
                  OFFSET 17.8396 -0.255518 -0.000602873
                }
              }
            }
          }
        }
      }
    }
  }
  JOINT LeftUpLeg
  {
    OFFSET -5.61296 -2.22332 -10.2353
    CHANNELS 3 Zrotation Xrotation Yrotation
    JOINT LeftLeg
    {
      OFFSET 2.56703 -44.7417 -7.93097
      CHANNELS 3 Zrotation Xrotation Yrotation
      JOINT LeftFoot
      {
        OFFSET 3.16933 -46.5642 -3.96578
        CHANNELS 3 Zrotation Xrotation Yrotation
        JOINT LeftToeBase
        {
          OFFSET 0.346054 -6.02161 12.8035
          CHANNELS 3 Zrotation Xrotation Yrotation
          End Site
          {
            OFFSET 0.134235 -1.35082 5.13018
          }
        }
      }
    }
  }
  JOINT RightUpLeg
  {
    OFFSET -5.7928 -1.72406 10.6446
    CHANNELS 3 Zrotation Xrotation Yrotation
    JOINT RightLeg
    {
      OFFSET -2.57161 -44.7178 -7.85259
      CHANNELS 3 Zrotation Xrotation Yrotation
      JOINT RightFoot
      {
        OFFSET -3.10148 -46.5936 -4.03391
        CHANNELS 3 Zrotation Xrotation Yrotation
        JOINT RightToeBase
        {
          OFFSET -0.0828122 -6.13587 12.8035
          CHANNELS 3 Zrotation Xrotation Yrotation
          End Site
          {
            OFFSET -0.131328 -1.35082 5.13018
          }
        }
      }
    }
  }
}
MOTION
Frames: 8
Frame Time: 0.03333333333333333
0.0000 93.1000 0.0000 71.8344 -26.1121 -7.0923 -71.1087 -0.0189 88.0131 84.0543 70.7091 1.9772 3.9828 17.8871 7.0312 -113.0626 29.5915 151.4014 -175.9825 76.3844 -155.6149 0.7129 -14.2541 -18.9637 -66.6873 33.8391 -145.3909 23.3519 -3.9103 -98.1088 -0.3201 -0.0120 0.3052 -1.5206 5.2547 31.2440 -128.1915 -15.7546 110.1564 22.2682 -4.2883 81.3840 1.8193 -0.4582 0.2078 -47.7403 15.3860 96.7075 -3.9186 42.8563 -13.7582 -5.1863 -12.2038 -0.6666 4.1831 -11.4261 7.2591 -46.0924 -18.0189 76.5776 1.0418 34.0419 -0.1823 -4.8834 2.2174 -0.1786 0.5822 -12.8913 0.2759 
0.0000 93.1000 0.0000 72.1323 -28.2575 -7.9767 -71.1180 0.5323 87.9507 82.7689 70.1408 0.2386 5.2926 17.1401 8.7954 -113.0735 29.0206 151.8873 -177.5874 76.3317 -153.5382 -2.3543 -15.5099 -19.0732 -67.1451 34.1636 -145.5786 22.4025 -3.7895 -97.1297 0.4174 2.8460 -1.7809 -1.6289 5.1554 32.5051 -128.4603 -13.8945 109.5324 24.4531 -4.2213 81.3796 -0.4834 2.6788 -1.6132 -47.5830 13.9767 96.4880 -4.0961 43.1219 -12.4827 -5.3536 -13.3868 -3.2284 2.9526 -8.9766 7.0479 -43.6363 -18.4674 78.0434 1.3030 34.4126 0.2813 -2.3207 3.5276 0.7511 1.2264 -14.0127 -6.2564 
0.0000 93.1000 0.0000 71.2133 -31.7205 -8.9777 -71.2013 -0.0596 88.0409 82.0574 70.9536 -0.8060 5.0681 17.5293 8.9187 -111.4793 28.7301 153.4265 176.7274 76.1826 -145.8826 0.6636 -16.9634 -20.3236 -69.1499 34.6026 -145.4585 21.7546 -3.6783 -97.3142 -0.3826 -0.2326 0.7846 -1.6230 5.7890 33.2002 -130.0361 -11.6607 108.7419 27.2055 -4.2036 81.8078 2.2078 -0.7709 0.0529 -47.9289 13.6548 97.3265 -3.5500 45.0650 -11.7146 -4.6976 -15.6599 -0.7097 1.6740 -7.6522 6.7459 -41.6823 -18.0618 79.4341 0.7919 35.1799 0.8334 -1.9197 6.3244 -0.7534 2.4435 -15.6176 -7.5201 
0.0000 93.1000 0.0000 71.2326 -34.0423 -8.8175 -71.1945 -0.0213 88.0432 84.1247 71.1256 -3.2469 4.7580 17.9831 8.2660 -113.1250 27.7542 151.9401 178.0164 75.1200 -147.3155 0.3637 -17.4544 -21.2880 -69.8952 33.7721 -144.7566 19.6275 -2.7914 -97.8912 -0.2196 -0.0122 0.6287 -1.8726 5.9379 36.0823 -130.0311 -11.2162 107.9677 27.8716 -4.0355 83.7934 1.7884 -0.5495 -0.2273 -47.5585 14.6985 98.6861 -3.9297 46.6641 -11.7546 -4.6021 -17.2947 -1.1553 2.5666 -9.1646 9.3591 -41.1552 -16.9437 79.3048 0.3365 34.2790 3.8494 0.2560 5.3603 -0.8057 1.8963 -17.0857 -7.9682 
0.0000 93.1000 0.0000 71.5703 -35.6919 -8.4630 -71.1915 0.1084 88.0371 84.2472 71.4115 -2.6682 5.2367 18.7029 7.5338 -112.6887 27.9149 151.7936 176.8795 74.7104 -147.5874 -0.2916 -17.4863 -22.3995 -69.2563 32.8136 -144.9617 19.5005 -2.9724 -97.8528 -0.0920 0.6156 0.0591 -2.0145 6.2189 38.2980 -130.7842 -9.0686 106.2138 28.9903 -2.1717 84.9571 1.0011 0.2085 -0.3877 -47.4220 14.8867 98.8572 -4.1545 47.5416 -10.4308 -4.1135 -18.0163 -1.8765 3.1449 -10.1086 10.2614 -40.9428 -16.0141 78.7779 0.8210 32.5817 4.2804 0.7897 4.7539 -0.5974 0.6184 -14.0823 -7.8636 
0.0000 93.1000 0.0000 71.5431 -37.0442 -8.6934 -71.1897 0.1244 88.0426 81.1049 71.8820 0.1100 5.7981 19.4181 7.1621 -112.8559 27.9604 152.5330 174.8534 74.2057 -147.5224 -0.3369 -17.5629 -23.9329 -68.5130 33.8826 -144.0135 21.1915 -3.7180 -97.1936 0.0912 0.5933 -0.3068 -2.0209 6.2685 38.8983 -133.1499 -8.7557 104.1063 30.0858 -2.1656 86.1171 0.9264 0.2680 -0.3348 -46.6837 15.1769 99.0856 -3.8623 49.0135 -8.9498 -3.6887 -19.7138 -1.9645 2.1873 -8.8814 10.0416 -42.0826 -15.7546 77.6439 0.6539 31.1574 3.0939 -0.4291 4.9068 -0.5997 0.2931 -12.0451 -1.5817 
0.0000 93.1000 0.0000 71.4520 -37.4548 -8.8601 -71.1980 0.0562 88.0538 82.4842 71.7944 -0.1100 4.9688 19.8209 7.0805 -113.9320 28.2211 152.7928 175.7897 74.2097 -147.0710 -0.0355 -17.1329 -25.0127 -66.4566 33.8433 -143.9471 22.6460 -4.0021 -96.9266 -0.0241 0.2218 -0.2910 -2.0948 6.5520 40.5138 -133.2243 -7.4442 102.2600 30.3559 -1.3867 87.0600 1.0354 -0.0944 0.0693 -46.5645 15.0567 99.6523 -4.8125 50.0883 -9.4715 -3.4421 -18.6537 -1.5787 2.8823 -9.9608 11.1374 -42.3242 -15.6937 77.0425 1.2999 30.2043 4.9518 1.1273 6.1505 -1.3362 0.5300 -9.8194 -2.4421 
0.0000 93.1000 0.0000 71.4492 -38.4109 -8.2758 -71.1921 0.0372 88.0453 84.5056 71.7593 -1.8510 4.8887 19.9806 6.2860 -113.6539 28.0235 154.2294 173.0212 73.3056 -146.8428 0.0459 -16.9401 -25.0962 -64.4268 35.4263 -142.9333 24.1038 -4.2785 -96.7629 -0.1704 0.1199 -0.0473 -2.2931 6.9656 42.1473 -133.1233 -6.7273 101.2024 30.6001 -1.8603 87.7860 1.3068 -0.1859 0.3316 -46.4031 15.0872 99.9355 -5.0645 52.4686 -9.1379 -2.4690 -19.2016 -1.7130 3.8686 -12.0747 12.7088 -42.0633 -15.8409 77.7180 1.1301 29.9123 5.6035 1.1777 6.5427 -1.4499 0.0324 -8.7556 1.1856 
